<?xml version="1.0" standalone="no"?><svg xmlns="http://www.w3.org/2000/svg" viewBox="0 0 1440 320"><path fill="#0b1999" fill-opacity="1" d="M0,192L24,165.3C48,139,96,85,144,106.7C192,128,240,224,288,256C336,288,384,256,432,218.7C480,181,528,139,576,122.7C624,107,672,117,720,112C768,107,816,85,864,96C912,107,960,149,1008,160C1056,171,1104,149,1152,154.7C1200,160,1248,192,1296,181.3C1344,171,1392,117,1416,90.7L1440,64L1440,320L1416,320C1392,320,1344,320,1296,320C1248,320,1200,320,1152,320C1104,320,1056,320,1008,320C960,320,912,320,864,320C816,320,768,320,720,320C672,320,624,320,576,320C528,320,480,320,432,320C384,320,336,320,288,320C240,320,192,320,144,320C96,320,48,320,24,320L0,320Z"></path></svg>